<svg width="22" height="17" viewBox="0 0 22 17" fill="none" xmlns="http://www.w3.org/2000/svg">
<path d="M21.1979 3.13137C21.0763 2.64117 20.8381 2.19423 20.5072 1.83527C20.1764 1.47631 19.7644 1.21793 19.3126 1.08599C17.6486 0.597412 10.9623 0.597412 10.9623 0.597412C10.9623 0.597412 4.27603 0.597412 2.61208 1.08599C2.16025 1.21793 1.74829 1.47631 1.41743 1.83527C1.08656 2.19423 0.848405 2.64117 0.726787 3.13137C0.416091 4.97244 0.265319 6.84107 0.276453 8.7127C0.265319 10.5843 0.416091 12.453 0.726787 14.294C0.848405 14.7842 1.08656 15.2312 1.41743 15.5901C1.74829 15.9491 2.16025 16.2075 2.61208 16.3394C4.27603 16.828 10.9623 16.828 10.9623 16.828C10.9623 16.828 17.6486 16.828 19.3126 16.3394C19.7644 16.2075 20.1764 15.9491 20.5072 15.5901C20.8381 15.2312 21.0763 14.7842 21.1979 14.294C21.5086 12.453 21.6593 10.5843 21.6482 8.7127C21.6593 6.84107 21.5086 4.97244 21.1979 3.13137V3.13137ZM8.82516 12.1907V5.23472L14.3742 8.7127L8.82516 12.1907Z" fill="white"/>
</svg>
