<svg width="21" height="14" viewBox="0 0 21 14" fill="none" xmlns="http://www.w3.org/2000/svg">
<path d="M19.9385 1.73379C20.0754 1.24059 19.9385 0.878906 19.2913 0.878906H17.1472C16.6016 0.878906 16.3523 1.1918 16.2154 1.53545C16.2154 1.53545 15.1253 4.41933 13.5805 6.28925C13.0818 6.83336 12.854 7.00518 12.5822 7.00518C12.4463 7.00518 12.2488 6.83336 12.2488 6.34016V1.73379C12.2488 1.14195 12.0914 0.878906 11.6368 0.878906H8.26758C7.92733 0.878906 7.72201 1.15255 7.72201 1.41347C7.72201 1.97349 8.49441 2.10289 8.5736 3.68113V7.10488C8.5736 7.85476 8.44943 7.99158 8.17567 7.99158C7.44923 7.99158 5.68153 5.09709 4.63244 1.78364C4.4281 1.13982 4.2218 0.879967 3.67428 0.879967H1.53114C0.918113 0.879967 0.795898 1.19286 0.795898 1.53651C0.795898 2.1538 1.52234 5.20845 4.17976 9.24845C5.95138 12.0072 8.44552 13.5027 10.7177 13.5027C12.0797 13.5027 12.2478 13.1707 12.2478 12.598V10.5127C12.2478 9.84877 12.3779 9.71513 12.8091 9.71513C13.1258 9.71513 13.6714 9.88907 14.9434 11.2181C16.3963 12.7942 16.6368 13.5016 17.4532 13.5016H19.5963C20.2084 13.5016 20.5144 13.1696 20.3384 12.5142C20.1458 11.8619 19.4516 10.9126 18.5306 9.78937C18.03 9.14875 17.2821 8.45933 17.0543 8.11462C16.7365 7.67021 16.8284 7.47399 17.0543 7.07943C17.0553 7.08049 19.6667 3.09035 19.9385 1.73379V1.73379Z" fill="white"/>
</svg>
