<svg width="197" height="52" viewBox="0 0 197 52" fill="none" xmlns="http://www.w3.org/2000/svg">
<path d="M0 43.6595C0 40.2615 2.46378 37.5843 6.05679 37.5843C8.2126 37.5843 9.54715 38.3051 10.6764 39.4378L9.34183 40.8793C8.41792 40.0556 7.39134 39.4378 6.05679 39.4378C3.79833 39.4378 2.15581 41.2912 2.15581 43.6595C2.15581 45.9249 3.79833 47.8813 6.05679 47.8813C7.494 47.8813 8.41792 47.2635 9.44449 46.3367L10.779 47.6754C9.54715 48.911 8.2126 49.7348 6.05679 49.7348C2.56644 49.7348 0 47.0575 0 43.6595Z" fill="#0E5644"/>
<path d="M12.9346 37.79H15.0904L18.6834 43.3504L22.2764 37.79H24.4322V49.5286H22.3791V41.0851L18.6834 46.6455H18.5807L14.9877 41.0851V49.5286H12.9346V37.79Z" fill="#0E5644"/>
<path d="M31.6183 37.6871H33.5688L38.7017 49.5287H36.5459L35.314 46.6455H29.7705L28.5386 49.5287H26.3828L31.6183 37.6871ZM34.5954 44.895L32.5423 40.1584L30.4891 44.895H34.5954Z" fill="#0E5644"/>
<path d="M40.7545 37.79H45.3741C48.1459 37.79 49.7884 39.3346 49.7884 41.8059C49.7884 44.4831 47.6326 45.8217 45.0661 45.8217H42.705V49.6316H40.6519V37.79H40.7545ZM45.1688 43.8653C46.7086 43.8653 47.7352 42.9385 47.7352 41.7029C47.7352 40.3643 46.7086 39.6435 45.1688 39.6435H42.8077V43.8653H45.1688Z" fill="#0E5644"/>
<path d="M54.5111 39.6435H50.8154V37.79H60.2599V39.6435H56.5642V49.5286H54.5111V39.6435Z" fill="#0E5644"/>
<path d="M67.0352 43.6595C67.0352 40.2615 69.4989 37.5843 73.0919 37.5843C75.2478 37.5843 76.5823 38.3051 77.7115 39.4378L76.377 40.9823C75.4531 40.1585 74.4265 39.5407 73.0919 39.5407C70.8335 39.5407 69.191 41.3942 69.191 43.7625C69.191 46.0278 70.8335 47.9843 73.0919 47.9843C74.5292 47.9843 75.4531 47.3665 76.4797 46.4397L77.8142 47.7783C76.5823 49.014 75.2478 49.8377 73.0919 49.8377C69.6016 49.7348 67.0352 47.0575 67.0352 43.6595Z" fill="#0E5644"/>
<path d="M79.8677 37.79H88.5936V39.6435H82.0235V42.6296H87.875V44.4831H82.0235V47.6752H88.6962V49.5286H79.8677V37.79Z" fill="#0E5644"/>
<path d="M91.1597 37.79H93.2128V43.6593L98.7563 37.79H101.323L96.4979 42.8356L101.528 49.5286H99.0643L95.0607 44.2772L93.2128 46.1306V49.5286H91.1597V37.79Z" fill="#0E5644"/>
<path d="M102.35 43.6595C102.35 40.3645 104.916 37.5843 108.509 37.5843C112.102 37.5843 114.669 40.3645 114.669 43.6595C114.669 46.9546 112.102 49.7348 108.509 49.7348C104.813 49.7348 102.35 46.9546 102.35 43.6595ZM112.41 43.6595C112.41 41.3942 110.768 39.4378 108.406 39.4378C106.045 39.4378 104.403 41.2912 104.403 43.6595C104.403 45.9249 106.045 47.8813 108.406 47.8813C110.768 47.8813 112.41 45.9249 112.41 43.6595Z" fill="#0E5644"/>
<path d="M117.132 37.79H119.185V42.6296H124.728V37.79H126.782V49.5286H124.728V44.5861H119.185V49.5286H117.132V37.79Z" fill="#0E5644"/>
<path d="M128.527 47.6752H129.656C130.58 45.7187 131.196 43.3504 131.196 39.4376V37.79H139.409V47.6752H140.846L140.538 51.9999H138.793V49.4257H130.477L130.272 51.9999H128.424V47.6752H128.527ZM137.253 47.6752V39.6435H133.147V40.9821C133.147 43.6593 132.633 46.0276 131.915 47.6752H137.253Z" fill="#0E5644"/>
<path d="M147.006 43.3503H142.078V45.3068H147.006V43.3503Z" fill="#0E5644"/>
<path d="M152.857 43.5564L148.75 37.79H151.214L154.088 42.0118L157.065 37.79H159.427L155.32 43.5564L159.529 49.5286H157.168L154.088 45.1009L150.906 49.5286H148.545L152.857 43.5564Z" fill="#0E5644"/>
<path d="M161.686 37.79H170.411V39.6435H163.739V42.6296H169.693V44.4831H163.739V47.6752H170.514V49.5286H161.686V37.79Z" fill="#0E5644"/>
<path d="M172.978 37.79H175.031V42.6296H180.677V37.79H182.73V49.5286H180.677V44.5861H175.031V49.5286H172.978V37.79Z" fill="#0E5644"/>
<path d="M184.373 47.6752H185.502C186.426 45.7187 187.042 43.3504 187.042 39.4376V37.79H195.254V47.6752H196.692L196.384 51.9999H194.638V49.4257H186.323L186.118 51.9999H184.27V47.6752H184.373ZM193.099 47.6752V39.6435H188.992V40.9821C188.992 43.6593 188.479 46.0276 187.76 47.6752H193.099Z" fill="#0E5644"/>
<path d="M22.482 1.33863V5.86931C22.482 6.38416 22.0714 6.79604 21.5581 6.79604H15.0907V25.5366C15.0907 26.0514 14.68 26.4633 14.1667 26.4633H8.31526C7.80197 26.4633 7.39134 26.0514 7.39134 25.5366V6.89901H0.923918C0.410631 6.89901 0 6.48713 0 5.97228V1.33863C0 0.823776 0.410631 0.411896 0.923918 0.411896H21.5581C22.0714 0.411896 22.482 0.926746 22.482 1.33863Z" fill="#0E5644"/>
<path d="M53.2793 13.4891C53.2793 20.9029 46.9145 26.9782 39.3179 26.9782C31.7212 26.9782 25.3564 20.9029 25.3564 13.4891C25.3564 6.07523 31.7212 0 39.3179 0C46.9145 0 53.2793 6.07523 53.2793 13.4891ZM45.9906 13.4891C45.9906 9.67919 43.0135 6.59008 39.4205 6.59008C35.8275 6.59008 32.8504 9.67919 32.8504 13.4891C32.8504 17.299 35.8275 20.3881 39.4205 20.3881C43.0135 20.3881 45.9906 17.299 45.9906 13.4891Z" fill="#0E5644"/>
<path d="M77.6088 21.0059V25.5366C77.6088 26.0514 77.1982 26.4633 76.6849 26.4633H58.7198C58.2065 26.4633 57.7959 26.0514 57.7959 25.5366V1.33863C57.7959 0.823776 58.2065 0.411896 58.7198 0.411896H64.5713C65.0846 0.411896 65.4952 0.823776 65.4952 1.33863V20.0792H76.7875C77.1982 20.0792 77.6088 20.4911 77.6088 21.0059Z" fill="#0E5644"/>
<path d="M106.251 26.5663H99.7831C98.9618 26.5663 98.4485 26.0514 97.9352 25.2277C97.5246 24.7128 94.5475 20.0792 92.2891 16.7841H90.2359V25.6396C90.2359 26.1544 89.8253 26.5663 89.312 26.5663H83.4605C82.9472 26.5663 82.5366 26.1544 82.5366 25.6396V1.33863C82.5366 0.823776 82.9472 0.411896 83.4605 0.411896H89.312C89.8253 0.411896 90.2359 0.823776 90.2359 1.33863V10.1941H92.1864C94.1369 6.38416 96.6007 1.54457 96.7034 1.33863C97.114 0.617836 97.422 0.411896 98.1406 0.411896H104.813C105.84 0.411896 106.148 0.823775 105.737 1.64754C105.429 2.16239 101.22 10.8119 99.5778 13.798C101.118 16.0633 106.661 24.6099 107.072 25.2277C107.38 25.9485 106.866 26.5663 106.251 26.5663Z" fill="#0E5644"/>
<path d="M137.15 13.4891C137.15 20.9029 130.786 26.9782 123.189 26.9782C115.592 26.9782 109.228 20.9029 109.228 13.4891C109.228 6.07523 115.592 0 123.189 0C130.786 0 137.15 6.07523 137.15 13.4891ZM129.862 13.4891C129.862 9.67919 126.885 6.59008 123.292 6.59008C119.699 6.59008 116.722 9.67919 116.722 13.4891C116.722 17.299 119.699 20.3881 123.292 20.3881C126.885 20.3881 129.862 17.299 129.862 13.4891Z" fill="#0E5644"/>
<path d="M166.818 1.75051C166.51 2.57427 157.989 24.9188 157.681 25.6396C157.373 26.2574 157.168 26.5663 156.552 26.5663H150.29C149.571 26.5663 149.366 26.2574 149.058 25.6396C148.75 25.0217 140.23 2.67724 139.922 1.75051C139.614 0.926745 139.922 0.411896 140.64 0.411896H146.697C147.724 0.411896 147.929 0.823775 148.34 1.75051C148.648 2.36833 151.214 10.297 153.472 16.8871C155.628 10.297 158.297 2.36833 158.503 1.75051C158.913 0.823775 159.016 0.411896 160.145 0.411896H166.202C166.715 0.411896 167.126 0.926745 166.818 1.75051Z" fill="#0E5644"/>
<path d="M197 13.4891C197 20.9029 190.635 26.9782 183.039 26.9782C175.442 26.9782 169.077 20.9029 169.077 13.4891C169.077 6.07523 175.442 0 183.039 0C190.635 0 197 6.07523 197 13.4891ZM189.609 13.4891C189.609 9.67919 186.632 6.59008 183.039 6.59008C179.446 6.59008 176.468 9.67919 176.468 13.4891C176.468 17.299 179.446 20.3881 183.039 20.3881C186.632 20.3881 189.609 17.299 189.609 13.4891Z" fill="#0E5644"/>
</svg>
