<svg id="Слой_1" data-name="Слой 1" xmlns="http://www.w3.org/2000/svg" viewBox="0 0 105.56 34.5"><defs><style>.cls-1{fill:#fff;}</style></defs><path class="cls-1" d="M14.68,1,24,25.29l-5.57.65-2-5.67H7.56L5.64,25.58H0L9.4,1ZM11.93,8.16,9.18,15.79h5.64Z"/><path class="cls-1" d="M43.78,8.09V25.62H40.63L39.3,23.78A16.22,16.22,0,0,1,37.15,25a16.6,16.6,0,0,1-2.41.88,8.79,8.79,0,0,1-2.38.35,6.45,6.45,0,0,1-3.67-.92,5.17,5.17,0,0,1-2-2.5,10.14,10.14,0,0,1-.59-3.56V8.09h5.67v10.7a3.25,3.25,0,0,0,.55,2,1.89,1.89,0,0,0,1.66.76,4.7,4.7,0,0,0,1.41-.23,8.73,8.73,0,0,0,1.44-.6L38.14,20V8.09Z"/><path class="cls-1" d="M46.06,25.58l5.85-8.82L46.38,8.92l5.39-1.41L55.28,13l3.14-4.92h6.22l-6,9.25,5.68,8.28H58.06l-2.78-4.52-2.9,4.52Z"/><path class="cls-1" d="M67.1,33.5V8.09H70l2.79,3.07v22Zm2.2-22.74A9.27,9.27,0,0,1,71,9.12a8.26,8.26,0,0,1,2.19-1.18,7.16,7.16,0,0,1,2.49-.43,9.83,9.83,0,0,1,4.66,1.05,7.36,7.36,0,0,1,3.11,3.09,10.24,10.24,0,0,1,1.12,5,10.5,10.5,0,0,1-1.12,5.05,7.7,7.7,0,0,1-3.14,3.18A10.14,10.14,0,0,1,75.45,26a7,7,0,0,1-2.19-.38,8.15,8.15,0,0,1-2.17-1.12,8.25,8.25,0,0,1-1.79-1.75l1.59-3.51a7.86,7.86,0,0,0,2.19,1.72,4.82,4.82,0,0,0,2.15.52,3.1,3.1,0,0,0,1.88-.59,3.82,3.82,0,0,0,1.23-1.69,6.63,6.63,0,0,0,.43-2.49,6.4,6.4,0,0,0-.43-2.48,3.57,3.57,0,0,0-1.25-1.59,3.46,3.46,0,0,0-2-.56,3.88,3.88,0,0,0-2,.62,13.44,13.44,0,0,0-2.15,1.73Z"/><path class="cls-1" d="M95.84,26a11.42,11.42,0,0,1-5-1.05,7.78,7.78,0,0,1-3.38-3.12,9.78,9.78,0,0,1-1.21-5,9.67,9.67,0,0,1,1.28-5,8.51,8.51,0,0,1,3.44-3.18,10.7,10.7,0,0,1,5-1.12,11.11,11.11,0,0,1,5,1.08,8,8,0,0,1,3.4,3.16,9.83,9.83,0,0,1,1.23,5.08,9.23,9.23,0,0,1-1.26,4.92,8.42,8.42,0,0,1-3.46,3.15A11.11,11.11,0,0,1,95.84,26Zm0-4.66a3.68,3.68,0,0,0,2-.56,3.82,3.82,0,0,0,1.32-1.58,5.54,5.54,0,0,0,.46-2.35,6,6,0,0,0-.45-2.38A3.77,3.77,0,0,0,98,12.8a3.42,3.42,0,0,0-2-.59,3.62,3.62,0,0,0-3.4,2.17,5.59,5.59,0,0,0-.47,2.42,5.45,5.45,0,0,0,.47,2.33,3.76,3.76,0,0,0,1.32,1.61A3.49,3.49,0,0,0,95.87,21.32Z"/></svg>