<?xml version="1.0" encoding="utf-8"?>
<!-- Generator: Adobe Illustrator 25.4.1, SVG Export Plug-In . SVG Version: 6.00 Build 0)  -->
<svg version="1.1" id="Слой_1" xmlns:serif="http://www.serif.com/"
	 xmlns="http://www.w3.org/2000/svg" xmlns:xlink="http://www.w3.org/1999/xlink" x="0px" y="0px" viewBox="0 0 600 600"
	 style="enable-background:new 0 0 600 600;" xml:space="preserve">
<style type="text/css">
	.st0{fill:none;}
	.st1{fill-rule:evenodd;clip-rule:evenodd;fill:#FFFFFF;}
</style>
<rect id="Icons" x="-8400" y="-2400" class="st0" width="12000" height="7500"/>
<g id="Icons1" serif:id="Icons">
	<g id="Strike">
	</g>
	<g id="H1">
	</g>
	<g id="H2">
	</g>
	<g id="H3">
	</g>
	<g id="list-ul">
	</g>
	<g id="hamburger-1">
	</g>
	<g id="hamburger-2">
	</g>
	<g id="list-ol">
	</g>
	<g id="list-task">
	</g>
	<g id="trash">
	</g>
	<g id="vertical-menu">
	</g>
	<g id="horizontal-menu">
	</g>
	<g id="sidebar-2">
	</g>
	<g id="Pen">
	</g>
	<g id="Pen1" serif:id="Pen">
	</g>
	<g id="clock">
	</g>
	<g id="external-link">
	</g>
	<g id="hr">
	</g>
	<g id="info">
	</g>
	<g id="warning">
	</g>
	<g id="plus-circle">
	</g>
	<g id="minus-circle">
	</g>
	<g id="vue">
	</g>
	<g id="cog">
	</g>
	<g id="logo">
	</g>
	<g id="eye-slash">
	</g>
	<g id="eye">
		<path class="st1" d="M304.8,130.6c99.1,1.4,180.5,90.5,221.2,167.2c0,0-14.3,29.3-27.8,48.1c-6.5,9.1-13.4,17.9-20.5,26.5
			c-5.1,6.1-10.4,12-15.9,17.8c-49.1,51.6-119.6,90-194.1,75.1C185,448.7,117.5,377.8,77,301.6c0,0,14.4-29.4,27.9-48.1
			c6.1-8.4,12.4-16.6,19.1-24.5c5.1-6.1,10.4-12,15.9-17.8C183.2,165.4,238.8,130.2,304.8,130.6z M304.5,168.1
			c-55.2-0.2-101.1,30.6-137.5,68.9c-4.9,5.2-9.7,10.6-14.3,16.1c-6.1,7.2-11.9,14.7-17.4,22.4c-5.5,7.7-11.2,17.3-15.7,25.5
			c35.8,60.1,89.4,114.4,155.5,127.6c61.5,12.3,119-21.6,159.5-64.2c5-5.2,9.8-10.6,14.4-16.1c6.6-7.8,12.8-15.9,18.7-24.2
			c5.5-7.7,11.1-17.4,15.6-25.6C446.3,236.4,382.8,169.3,304.5,168.1z"/>
		<path class="st1" d="M301.5,224.5c41.5,0,75.2,33.7,75.2,75.2c0,41.5-33.7,75.2-75.2,75.2c-41.5,0-75.2-33.7-75.2-75.2
			C226.3,258.2,260,224.5,301.5,224.5L301.5,224.5z M301.5,262.1c20.7,0,37.6,16.8,37.6,37.6c0,20.7-16.8,37.6-37.6,37.6
			c-20.7,0-37.6-16.8-37.6-37.6C263.9,278.9,280.7,262.1,301.5,262.1z"/>
	</g>
	<g id="toggle-off">
	</g>
	<g id="shredder">
	</g>
	<g id="spinner--loading--dots-" serif:id="spinner [loading, dots]">
	</g>
	<g id="react">
	</g>
</g>
</svg>
