<svg width="159" height="90" fill="none" xmlns="http://www.w3.org/2000/svg"><path fill-rule="evenodd" clip-rule="evenodd" d="M80.31 33.187c1.415.247 2.61.291 3.683.677 3.995 1.431 5.773 4.477 5.983 8.568.133 2.634-.305 5.224-.858 7.776-.463 2.165-1.003 4.343-1.765 6.414-.737 1.988-1.772 3.863-2.738 5.762-.825 1.628-1.727 3.204-2.591 4.813-3.125 5.82-7.546 10.112-14.145 11.765-.984.247-1.365.943-1.664 1.684-.87 2.153-2.19 3.99-3.855 5.56-2.458 2.317-5.316 3.42-8.72 2.317-1.144-.367-2.268-.785-3.411-1.146a2.378 2.378 0 00-.99-.07c-1.652.229-3.342.33-4.942.76-2.94.792-5.875 1.26-8.873.545-1.347-.323-2.515.102-3.697.538-3.188 1.178-6.32 1.203-9.368-.38-1.696-.88-3.106-2.146-4.224-3.678-.71-.976-1.213-2.103-1.886-3.116-.286-.43-.705-.861-1.162-1.076-2.719-1.273-4.668-3.37-6.314-5.775-.965-1.412-1.752-2.945-2.654-4.401-.496-.798-1.004-1.615-1.62-2.318-1.645-1.868-2.737-4.033-3.417-6.376-.368-1.254-.387-2.622-.495-3.939C.49 56.94.49 55.78.46 54.621c-.077-2.85.622-5.591 1.162-8.358.165-.849.14-1.628-.229-2.438-1.238-2.748-1.499-5.68-1.359-8.637.083-1.754.038-3.559 1.06-5.136.14-.209 1.125-1.792 1.258-2.058.375-.74.623-1.564 1.08-2.241.902-1.33.432-3.983 4.433-8.15 2.319-2.09 8.511-5.458 9.222-5.927.756-.5 1.487-1.044 2.262-1.507 1.003-.607 1.994-1.26 3.067-1.703 1.53-.633 3.157-1.038 4.707-1.64 2.483-.969 5.043-1.241 7.691-1.216 2.61.032 5.253.108 7.819-.253 2.197-.31 4.522-.88 6.059-2.697.705-.836 7.088-2.666 7.85-2.66.832.006 4.478.279 5.348.975 1.321 1.058 2.452 2.23 3.277 3.736.909 1.665 1.105 3.483 1.245 5.281.127 1.66 1.08 2.375 2.445 2.913.604.24 1.144.64 1.703.994 2.94 1.88 5.214 4.42 6.523 7.605 1.264 3.084 2.388 6.262 2.813 9.612.09.71.273 1.4.413 2.07zM47.32 17.255c.508-.19 2.87-.203 3.068-.196 1.34.044 2.68.019 4.014.019-1.29-1.805-2.94-2.115-5.024-1.38-.635.227-1.709.715-2.058 1.557zm14.824 65.399c.12-.26.235-.52.413-.912-3.106.715-5.253 2.843-8.047 3.951 1.511.906 2.807.07 4.128.013 1.093-.045 1.848-.532 2.458-1.355.35-.57.699-1.134 1.048-1.697zm9.12-8.612c.115.108.23.221.35.33 1.042-.818 2.16-1.559 3.112-2.464 2.998-2.875 5.36-6.244 7.342-9.872.769-1.406 1.34-2.919 1.988-4.388 1.849-4.211 2.833-8.644 3.208-13.209.127-1.577-.114-3.115-.673-4.59-.934-2.432-3.055-3.61-5.78-3.205-.045.184-.14.386-.146.595-.064 2.647.559 6.7-.14 12.709-.184 2.14-.673 4.813-1.632 6.832-.566 1.184-1.1 2.514-1.137 3.793-.045 1.457-.515 2.704-1.08 3.945a61.316 61.316 0 01-2.528 4.889c-.908 1.583-1.924 3.096-2.883 4.635zM31.379 8.105c1.048-.779-2.928-.006-4.217.469-1.766.652-3.475 1.494-5.151 2.349-4.186 2.128-8.092 4.686-11.496 7.934-2.204 2.109-4.433 4.224-5.958 6.909-2.07 3.634-2.7 7.617-2.598 11.72.032 1.311.432 2.622.686 4.072.254-.272.407-.367.458-.507.984-2.463 1.72-5.04 3.239-7.275.483-.716.82-1.545 1.162-2.35.318-.76.508-1.576.839-2.336.304-.703.635-1.418 1.092-2.026.476-.62 4.935-4.712 5.443-5.668.432-.804 1.181-1.443 1.772-2.165 1.093-1.33 2.21-2.634 3.246-4.002.502-.665 5.075-4.566 7.247-5.32 1.441-.5 2.826-1.196 4.236-1.804zm15.383-2.134c3.036.773 5.57 1.944 7.634 4.015 1.125 1.127 2.198 2.07 4.148 1.602 1.664-.4 3.506-.082 5.341-.082.585-1.147-.019-2.388-.38-3.616-1.125-3.8-3.735-5.92-8.035-5.813-2.966.076-5.43 1.431-7.889 2.818-.298.164-.457.582-.819 1.076zM9.028 51.303c-.407.507-.686.71-.744.956-.127.564-.114 1.165-.216 1.742-.317 1.684-.787 3.356-.971 5.053-.254 2.324.222 4.616.692 6.889.534 2.577 2.363 4.344 4.967 4.838.019-.108.063-.222.057-.33-.114-2.108-.216-4.204.248-6.306.127-.57-.16-1.305-.426-1.887-1.238-2.679-2.312-5.408-3.017-8.27-.184-.779-.343-1.57-.59-2.685zm57.524-29.318c1.499 2.115 3.08 3.996 4.262 6.11 1.194 2.141 1.994 4.51 3.01 6.871l3.392-1.089c-.038-2.862-.769-5.332-2.35-7.573.184-.026-7.253-4.072-8.314-4.319zM64.843 72.46c1.283-.893 2.262-1.919 2.617-3.565.826-3.831 1.03-7.706.921-11.594-.044-1.463-.095-2.983-.781-4.376-.42 1.69-.343 3.92-.711 5.591-.4 1.818-.864 3.242-1.22 5.066-.343 1.742-1.276 3.223-2.083 4.8-.756 1.469-3.398 6.288-2.896 6.598.476.298 3.823-2.286 4.154-2.52zm-45.145 9.428c.972 3.451 6.338 6.168 10.327 5.357-1.645-1.81-3.645-3.337-4.28-5.743-2.135-.456-4.021-.019-6.047.386zm46.74-62.03c2.61.811 5.163 1.603 7.926 2.457-.356-.588-.61-1.057-.92-1.494-.553-.766-1.176-1.482-1.697-2.267-1.06-1.596-2.648-2.495-4.293-3.305-.578-.285-1.099-.095-1.277.62-.35 1.394-.73 2.8.26 3.99zM4.264 62.354c.248-2.445.337-4.87.769-7.232.431-2.355 1.206-4.654 1.841-7.028-1.054-.266-1.93-.488-3.042-.767-.025.982.089 1.76-.089 2.464-.686 2.703-.603 5.47-.686 8.206-.044 1.47.172 3.065 1.207 4.357zM25.757 17.83c2.547-.234 4.865.057 6.955-1.348 1.048-.71 2.26-1.21 3.461-1.647 1.156-.418 1.556-1.24 1.817-2.222-.788-.678-1.53-.355-2.185-.152-3.589 1.114-7.164 2.286-10.048 5.37zm-7.03 15.394c.94-1.013 1.88-2.147 2.94-3.154 1.892-1.792 3.855-3.501 5.78-5.255.247-.228.45-.507.78-.874-.603-.076-.996-.07-1.365-.177-1.429-.412-2.477.196-3.398 1.19-.946 1.013-1.981 1.957-2.832 3.046-1.093 1.393-2.052 2.887-3.043 4.363-.127.196-.07.513-.095.791.457.026.82.044 1.232.07zM48.018 7.808c-.547-.197-1.055-.488-1.588-.716-.146-.063-.369-.095-.49-.025-1.04.595-2.54.614-2.775 2.077.146.943.864 1.063 1.512 1.203 2.147.456 4.3.893 6.453 1.292.375.07.781-.057 1.169-.09.031-.12.057-.24.088-.36-1.111-.842-3.798-3.172-4.37-3.381zm9.717 6.034c1.086 1.476 1.918 2.704 2.865 3.844.45.538 1.073.968 1.69 1.31.565.31 1.155.127 1.327-.55.343-1.375.933-2.742.431-4.211-1.981-.81-3.982-.406-6.313-.393zM8.354 45.218c.375-2.628.991-5.148-.68-7.706-.285.468-.533.766-.666 1.102-.521 1.317-.953 2.672-1.53 3.963-.712 1.596-.496 2.204 1.187 2.622.502.12 1.067.019 1.69.019zm69.148-8.466c-.966.291-1.747.506-2.515.772-.597.203-.845.564-.712 1.273.438 2.35.877 2.95 3.233 3.248-.006-1.703-.006-3.387-.006-5.293zM30.33 80.57c1.232 1.355 2.617 1.824 3.887 2.445 1.391.677 1.41.633 2.592-.811-2.065-.627-3.71-2.47-6.479-1.634zm11.985-63.327c-.235-.773-.311-1.216-.495-1.603-.299-.633-1.137-1.019-1.626-.81-1.283.538-2.223 2.222-2.045 3.8 1.327-.602 2.534-1.45 4.166-1.387zm-20.858 7.23c-3.03-.005-4.255 1.09-3.976 3.572.934 0 3.493-3.02 3.976-3.571zm1.97-8.263c.247.235.463.532.545.5.839-.31 1.709-.588 2.471-1.044 1.054-.633 2.032-1.406 3.023-2.14.09-.07.057-.298.102-.577-1.004.361-1.925.678-2.833 1.026-.413.158-.845.317-1.2.57-.667.475-1.29 1.013-2.109 1.665zm-11.11 21.251l.325.114c.71-1.59 1.428-3.166 2.12-4.762.376-.867.515-1.76.07-3.04-1.13 2.698-2.089 5.104-2.514 7.688zm27.33-28.438l.058-.405c-.42-.19-.832-.38-1.372-.627-1.791-.411-3.868.102-6.117 1.254 2.382-.07 4.904-.146 7.431-.222zm5.47 75.296c-1.792-.348-3.17-.678-4.568-.868-.622-.088-1.18.197-1.187 1.096 1.829.348 3.595.722 5.754-.228zm13.07-7.63c-.775.652-8.104 3.938-8.79 4.515 1.334 1.063 8.536-1.014 10.613-3.388-.572-.361-1.13-.697-1.823-1.127zM36.313 16.856c-1.537.032-2.693.386-3.55 1.47.813.436 1.613.867 2.54 1.367.356-1.007.66-1.862 1.01-2.837zm-18.38 58.218c1.257 1.393 2.565 1.976 4.394 2.38-.844-1.145-1.454-1.981-2.127-2.893-.642.146-1.283.285-2.268.513zm-2.884 2.413c-.318-2.413-1.277-3.09-3.074-2.907 1.022.969 1.918 1.811 3.074 2.907zm54.564-45.225c-.603-1.614 1.118-2.608-4.458-7.142.133 2.083 2.934 6.16 4.458 7.142z" fill="#A5A73A"/><path d="M34.5 40.532c-.097 2.21-.213 4.428-.361 6.659a58.425 58.425 0 01-.768 6.459 32.758 32.758 0 01-1.581 5.84c-.69 1.81-1.633 3.415-2.826 4.8-1.2 1.385-2.691 2.49-4.485 3.316-1.342.62-2.91 1.032-4.704 1.246-.6.073-1.594.18-2.22.14L16 62.138c2.968.36 5.498-.992 6.414-1.684 1.245-.939 2.188-2.384 2.833-4.328.8-2.41 1.368-5.52 1.703-9.329.336-3.816.504-8.077.504-12.798h22.681v34.299h-7.479V40.532H34.5zM56.13 55.48c0-2.31.342-4.327 1.032-6.065.684-1.731 1.588-3.176 2.71-4.328a11.266 11.266 0 013.86-2.624 11.773 11.773 0 014.484-.892c3.581 0 6.408 1.132 8.492 3.39 2.078 2.256 3.117 5.586 3.117 9.974 0 .426-.02.899-.046 1.411-.032.513-.064.966-.096 1.359H63.467c.161 1.518.845 2.723 2.065 3.615.735.54 2.2 1.459 4.31 1.578 4.369.24 6.988-.858 7.537-1.524l.961 5.986c-.38.2-.897.393-1.535.592-.64.2-1.35.373-2.136.52-.781.146-1.62.273-2.517.373-.897.1-1.794.146-2.684.146-2.272 0-4.246-.346-5.924-1.039-1.678-.692-3.071-1.638-4.175-2.843-1.103-1.205-1.916-2.63-2.445-4.281-.53-1.652-.794-3.436-.794-5.347zm16.79-2.822a7.932 7.932 0 00-.31-1.832 4.642 4.642 0 00-.813-1.584 4.475 4.475 0 00-1.387-1.139c-.561-.3-1.258-.446-2.084-.446-.8 0-1.484.14-2.065.42a4.278 4.278 0 00-1.44 1.111c-.38.46-.677 1-.883 1.605a11.145 11.145 0 00-.458 1.858h9.44v.006zm34.142-10.395v26.03h-7.144v-19.89h-7.433v19.896h-7.143V42.263h21.72zm27.579 6.04h-8.06v19.996h-7.149V48.303h-8.06v-6.04h23.262v6.04h.007zm13.376-6.733c2.11 0 3.866.247 5.272.74 1.407.493 2.536 1.205 3.382 2.13.845.926 1.445 2.045 1.8 3.363.348 1.319.529 2.79.529 4.402 0 0-.916 9.915-.342 13.89.174 1.225.342 1.451.342 1.451-1.026.233-2.446.506-4.272.82-1.819.312-4.026.472-6.614.472-1.632 0-3.11-.146-4.439-.446-1.33-.3-2.472-.786-3.433-1.458a6.598 6.598 0 01-2.207-2.65c-.51-1.093-.768-2.424-.768-4.009 0-1.518.297-2.803.891-3.862.593-1.052 1.38-1.898 2.374-2.524.994-.626 2.123-1.078 3.407-1.358 1.278-.28 2.607-.42 3.982-.42.929 0 1.748.04 2.471.127a11 11 0 011.749.32v-.693c0-1.252-.368-2.257-1.104-3.016-.735-.76-2.103-1.305-3.794-1.339-1.213-.02-4.627.213-6.608 1.685l-1.006-6.386a20.87 20.87 0 011.555-.42 27 27 0 012.039-.392 50.45 50.45 0 012.323-.3 23.43 23.43 0 012.471-.126zm.581 21.581c.704 0 1.375-.013 2.013-.046a13.53 13.53 0 001.536-.147v-5.593a12.346 12.346 0 00-1.297-.2 13.827 13.827 0 00-3.478.02c-.594.087-1.11.24-1.561.473a2.779 2.779 0 00-1.059.939c-.258.393-.38.892-.38 1.485 0 1.152.374 1.95 1.129 2.397.748.446 1.781.672 3.097.672z" fill="#fff"/></svg>