<svg width="197" height="52" fill="none" xmlns="http://www.w3.org/2000/svg"><path d="M0 43.66c0-3.398 2.464-6.076 6.057-6.076 2.156 0 3.49.721 4.62 1.854l-1.335 1.441c-.924-.823-1.95-1.441-3.285-1.441-2.259 0-3.901 1.853-3.901 4.221 0 2.266 1.642 4.222 3.9 4.222 1.438 0 2.362-.617 3.388-1.544l1.335 1.338c-1.232 1.236-2.566 2.06-4.722 2.06C2.567 49.735 0 47.057 0 43.66zm12.935-5.87h2.155l3.593 5.56 3.593-5.56h2.156v11.739H22.38v-8.444l-3.696 5.56h-.102l-3.593-5.56v8.444h-2.053V37.79zm18.683-.103h1.95l5.134 11.842h-2.156l-1.232-2.884H29.77l-1.23 2.885h-2.156l5.235-11.842zm2.977 7.208l-2.053-4.737-2.053 4.737h4.106zm6.16-7.105h4.62c2.77 0 4.413 1.545 4.413 4.016 0 2.677-2.155 4.016-4.722 4.016h-2.361v3.81h-2.053V37.79h.102zm4.414 6.075c1.54 0 2.566-.927 2.566-2.162 0-1.339-1.026-2.06-2.566-2.06h-2.361v4.222h2.36zm9.342-4.221h-3.696V37.79h9.445v1.854h-3.696v9.885h-2.053v-9.886zm12.524 4.016c0-3.398 2.464-6.076 6.057-6.076 2.156 0 3.49.721 4.62 1.854l-1.335 1.544c-.924-.824-1.95-1.441-3.285-1.441-2.258 0-3.901 1.853-3.901 4.222 0 2.265 1.642 4.221 3.9 4.221 1.438 0 2.362-.617 3.389-1.544l1.334 1.338c-1.232 1.236-2.566 2.06-4.722 2.06-3.49-.103-6.057-2.78-6.057-6.178zm12.833-5.87h8.726v1.854h-6.57v2.986h5.851v1.853h-5.852v3.192h6.673v1.854h-8.828V37.79zm11.292 0h2.053v5.87l5.543-5.87h2.567l-4.825 5.046 5.03 6.693h-2.464l-4.003-5.252-1.848 1.854v3.398H91.16V37.79zm11.19 5.87c0-3.295 2.566-6.076 6.159-6.076s6.16 2.78 6.16 6.075c0 3.296-2.567 6.076-6.16 6.076-3.696 0-6.159-2.78-6.159-6.075zm10.06 0c0-2.266-1.642-4.222-4.004-4.222-2.361 0-4.003 1.853-4.003 4.221 0 2.266 1.642 4.222 4.003 4.222 2.362 0 4.004-1.956 4.004-4.221zm4.722-5.87h2.053v4.84h5.543v-4.84h2.054v11.739h-2.054v-4.943h-5.543v4.943h-2.053V37.79zm11.395 9.885h1.129c.924-1.956 1.54-4.325 1.54-8.237V37.79h8.213v9.885h1.437L140.538 52h-1.745v-2.574h-8.316L130.272 52h-1.848v-4.325h.103zm8.726 0v-8.031h-4.106v1.338c0 2.677-.514 5.046-1.232 6.693h5.338zm9.753-4.325h-4.928v1.957h4.928V43.35zm5.851.206l-4.107-5.766h2.464l2.874 4.222 2.977-4.222h2.362l-4.107 5.766 4.209 5.973h-2.361l-3.08-4.428-3.182 4.428h-2.361l4.312-5.973zm8.829-5.766h8.725v1.854h-6.672v2.986h5.954v1.853h-5.954v3.192h6.775v1.854h-8.828V37.79zm11.292 0h2.053v4.84h5.646v-4.84h2.053v11.739h-2.053v-4.943h-5.646v4.943h-2.053V37.79zm11.395 9.885h1.129c.924-1.956 1.54-4.325 1.54-8.237V37.79h8.212v9.885h1.438L196.384 52h-1.746v-2.574h-8.315L186.118 52h-1.848v-4.325h.103zm8.726 0v-8.031h-4.107v1.338c0 2.677-.513 5.046-1.232 6.693h5.339zM22.482 1.339v4.53c0 .515-.41.927-.924.927h-6.467v18.74a.922.922 0 01-.924.927H8.315a.921.921 0 01-.924-.926V6.899H.924A.921.921 0 010 5.972V1.34C0 .824.41.412.924.412h20.634c.513 0 .924.515.924.927zM53.28 13.49c0 7.413-6.366 13.488-13.962 13.488-7.597 0-13.962-6.075-13.962-13.489C25.356 6.075 31.721 0 39.318 0c7.596 0 13.961 6.075 13.961 13.49zm-7.29 0c0-3.81-2.977-6.9-6.57-6.9-3.593 0-6.57 3.09-6.57 6.9 0 3.809 2.977 6.898 6.57 6.898 3.593 0 6.57-3.089 6.57-6.899zm31.619 7.516v4.53c0 .515-.41.927-.924.927H58.72a.921.921 0 01-.924-.926V1.339c0-.515.41-.927.924-.927h5.851c.514 0 .924.412.924.927v18.74h11.292c.411 0 .822.412.822.927zm28.642 5.56h-6.468c-.821 0-1.335-.515-1.848-1.338-.41-.515-3.388-5.149-5.646-8.444h-2.053v8.856c0 .514-.41.926-.924.926H83.46a.921.921 0 01-.923-.926V1.339c0-.515.41-.927.923-.927h5.852c.513 0 .924.412.924.927v8.855h1.95c1.95-3.81 4.415-8.65 4.517-8.855.411-.721.719-.927 1.438-.927h6.672c1.027 0 1.335.412.924 1.236-.308.514-4.517 9.164-6.16 12.15 1.541 2.265 7.084 10.812 7.495 11.43.308.72-.206 1.338-.821 1.338zM137.15 13.49c0 7.413-6.364 13.488-13.961 13.488s-13.961-6.075-13.961-13.489C109.228 6.075 115.592 0 123.189 0s13.961 6.075 13.961 13.49zm-7.288 0c0-3.81-2.977-6.9-6.57-6.9-3.593 0-6.57 3.09-6.57 6.9 0 3.809 2.977 6.898 6.57 6.898 3.593 0 6.57-3.089 6.57-6.899zm36.956-11.74c-.308.824-8.829 23.169-9.137 23.89-.308.617-.513.926-1.129.926h-6.262c-.719 0-.924-.309-1.232-.926-.308-.618-8.828-22.963-9.136-23.89-.308-.823 0-1.338.718-1.338h6.057c1.027 0 1.232.412 1.643 1.339.308.617 2.874 8.546 5.132 15.136 2.156-6.59 4.825-14.519 5.031-15.136.41-.927.513-1.34 1.642-1.34h6.057c.513 0 .924.516.616 1.34zM197 13.49c0 7.413-6.365 13.488-13.961 13.488-7.597 0-13.962-6.075-13.962-13.489C169.077 6.075 175.442 0 183.039 0 190.635 0 197 6.075 197 13.49zm-7.391 0c0-3.81-2.977-6.9-6.57-6.9-3.593 0-6.571 3.09-6.571 6.9 0 3.809 2.978 6.898 6.571 6.898 3.593 0 6.57-3.089 6.57-6.899z" fill="#0E5644"/></svg>